#!OML:ASF F:\VICON\USERDATA\INSTALL\rory3\rory3.ASF
:FULLY-SPECIFIED
:DEGREES
329
root -5.32676 17.7098 6.83604 6.33338 -47.9422 -8.35873
lowerback 8.42913 2.40541 4.73277
upperback 1.04905 3.67218 1.75595
thorax -3.45043 1.75708 -1.23937
lowerneck -19.7407 -5.48325 -9.53455
upperneck 25.889 -7.2924 8.25531
head 12.5486 -3.18296 3.52258
rclavicle -2.25745e-014 1.76918e-014
rhumerus -29.0861 0.835693 -79.0653
rradius 39.8426
rwrist 2.5495
rhand -15.6421 12.3453
rfingers 7.12502
rthumb 10.5454 -17.3702
lclavicle -2.25745e-014 1.76918e-014
lhumerus -35.8265 -3.05782 83.4412
lradius 37.5014
lwrist -2.93056
lhand -15.3685 24.3734
lfingers 7.12502
lthumb 10.8093 54.0753
rfemur 1.65105 0.344972 31.4694
rtibia 22.529
rfoot -18.6752 -1.83644
rtoes 5.60389
lfemur -28.7137 0.195376 -14.552
ltibia 28.8167
lfoot -9.91449 3.1909
ltoes -10.1118
330
root -5.43546 17.6943 6.94415 6.51918 -48.2493 -8.45887
lowerback 8.3733 2.54295 4.79392
upperback 1.00076 3.85815 1.71296
thorax -3.45259 1.84788 -1.33544
lowerneck -19.6219 -5.47172 -9.52301
upperneck 25.7469 -7.28706 8.28429
head 12.468 -3.1784 3.53113
rclavicle -4.88762e-014 -1.3418e-015
rhumerus -28.9855 1.13684 -79.2414
rradius 39.9747
rwrist 2.59189
rhand -15.6633 12.1308
rfingers 7.12502
rthumb 10.525 -17.5857
lclavicle -4.88762e-014 -1.3418e-015
lhumerus -35.9762 -3.06 83.4421
lradius 37.7638
lwrist -2.79868
lhand -15.0985 24.5085
lfingers 7.12502
lthumb 11.0698 54.1966
rfemur 2.31559 0.487135 31.4677
rtibia 22.1143
rfoot -18.8107 -1.75459
rtoes 5.10317
lfemur -28.8261 0.0700062 -14.3764
ltibia 26.6923
lfoot -9.88799 3.70391
ltoes -9.74086
331
root -5.54678 17.6779 7.05698 6.64217 -48.5324 -8.45506
lowerback 8.25554 2.67295 4.81615
upperback 0.974112 4.0243 1.62638
thorax -3.39757 1.93111 -1.4484
lowerneck -19.6679 -5.4907 -9.57265
upperneck 25.7192 -7.35004 8.47608
head 12.4845 -3.18568 3.60191
rclavicle -1.05263e-013 3.97569e-016
rhumerus -28.8734 1.39068 -79.431
rradius 40.079
rwrist 2.66154
rhand -15.5767 12.0438
rfingers 7.12502
rthumb 10.6085 -17.6684
lclavicle -1.05263e-013 3.97569e-016
lhumerus -36.0593 -2.92793 83.3545
lradius 37.9781
lwrist -2.82165
lhand -14.8172 24.4749
lfingers 7.12502
lthumb 11.3411 54.1483
rfemur 3.00092 0.570516 31.3738
rtibia 21.6604
rfoot -18.9574 -1.66502
rtoes 4.93465
lfemur -28.9418 -0.189902 -14.2491
ltibia 24.6758
lfoot -9.89222 4.38322
ltoes -11.7362
332
root -5.65777 17.6677 7.17203 6.79224 -48.8431 -8.51171
lowerback 8.08785 2.77017 4.89555
upperback 1.0236 4.14507 1.56033
thorax -3.23497 1.99471 -1.5611
lowerneck -19.8329 -5.49538 -9.57369
upperneck 25.6858 -7.35639 8.54275
head 12.5086 -3.17509 3.62425
rclavicle -1.09332e-013 -1.53561e-014
rhumerus -28.5598 1.84841 -79.6516
rradius 40.0847
rwrist 2.69947
rhand -15.6724 11.8515
rfingers 7.12502
rthumb 10.5162 -17.8654
lclavicle -1.09332e-013 -1.53561e-014
lhumerus -36.0174 -2.84641 83.2836
lradius 38.0378
lwrist -2.94986
lhand -15.1792 23.9137
lfingers 7.12502
lthumb 10.9919 53.6059
rfemur 3.72227 0.672053 31.3031
rtibia 21.2017
rfoot -19.0714 -1.56976
rtoes 4.53713
lfemur -29.0068 -0.646402 -13.9964
ltibia 22.7503
lfoot -10.0117 5.22417
ltoes -13.3709
333
root -5.76524 17.6551 7.28329 7.10864 -49.1528 -8.84293
lowerback 8.02142 2.8733 5.1426
upperback 1.09427 4.29468 1.56784
thorax -3.09783 2.07011 -1.69771
lowerneck -20.0645 -5.51867 -9.54772
upperneck 25.6451 -7.34371 8.45931
head 12.5331 -3.17002 3.58591
rclavicle 8.28994e-015 1.2921e-014
rhumerus -28.1485 2.288 -79.8521
rradius 39.9952
rwrist 2.70446
rhand -16.0997 11.3553
rfingers 7.12502
rthumb 10.104 -18.3822
lclavicle 8.28994e-015 1.2921e-014
lhumerus -35.85 -2.96662 83.312
lradius 37.9397
lwrist -3.11223
lhand -15.7823 23.2342
lfingers 7.12502
lthumb 10.4102 52.9565
rfemur 4.51313 0.850583 31.4529
rtibia 20.6915
rfoot -19.0826 -1.534
rtoes 3.75703
lfemur -29.0591 -1.43762 -13.3665
ltibia 20.963
lfoot -10.0758 6.32844
ltoes -13.5261
334
root -5.87517 17.6428 7.39695 7.39024 -49.5045 -9.09018
lowerback 7.94571 3.00132 5.28016
upperback 1.09043 4.47145 1.57431
thorax -3.03827 2.15777 -1.77881
lowerneck -20.1526 -5.51099 -9.5331
upperneck 25.62 -7.30224 8.38557
head 12.5322 -3.15663 3.56049
rclavicle -1.53682e-013 -9.24349e-015
rhumerus -27.8854 2.50789 -79.9983
rradius 39.8715
rwrist 2.81361
rhand -16.2048 11.1915
rfingers 7.12502
rthumb 10.0025 -18.5508
lclavicle -1.53682e-013 -9.24349e-015
lhumerus -35.9082 -3.07421 83.385
lradius 38.0321
lwrist -2.9761
lhand -15.7235 23.2445
lfingers 7.12502
lthumb 10.4669 52.9639
rfemur 5.29744 0.980554 31.5193
rtibia 20.1372
rfoot -19.04 -1.49756
rtoes 2.61352
lfemur -29.1181 -2.50584 -12.6661
ltibia 19.3457
lfoot -10.2241 7.84354
ltoes -14.2688
335
root -5.98565 17.6313 7.51205 7.66556 -49.889 -9.20564
lowerback 7.79327 3.13199 5.26863
upperback 1.02357 4.63819 1.5924
thorax -3.01422 2.24081 -1.76168
lowerneck -20.0726 -5.48209 -9.62124
upperneck 25.5241 -7.24169 8.42621
head 12.4768 -3.13515 3.60082
rclavicle 5.29823e-014 -1.53561e-014
rhumerus -27.732 2.73906 -80.0904
rradius 39.7485
rwrist 2.97536
rhand -16.1568 11.4174
rfingers 7.12502
rthumb 10.0489 -18.3226
lclavicle 5.29823e-014 -1.53561e-014
lhumerus -36.1256 -2.92867 83.4408
lradius 38.2275
lwrist -2.85058
lhand -15.3826 23.8366
lfingers 7.12502
lthumb 10.7958 53.5392
rfemur 5.96507 1.02319 31.4309
rtibia 19.6155
rfoot -18.9801 -1.28626
rtoes 1.41741
lfemur -29.2779 -3.65912 -11.9714
ltibia 17.896
lfoot -10.4364 9.41664
ltoes -13.9247
336
root -6.09408 17.62 7.62457 8.00853 -50.2203 -9.36834
lowerback 7.66184 3.23378 5.25843
upperback 0.936088 4.76992 1.63477
thorax -3.02775 2.30515 -1.71889
lowerneck -20.0529 -5.45572 -9.64035
upperneck 25.5238 -7.17693 8.3554
head 12.4631 -3.11781 3.58823
rclavicle -1.16587e-013 -1.77912e-014
rhumerus -27.6123 2.99342 -80.1566
rradius 39.6335
rwrist 3.18588
rhand -16.1203 11.5175
rfingers 7.12502
rthumb 10.0841 -18.2208
lclavicle -1.16587e-013 -1.77912e-014
lhumerus -36.3889 -2.76997 83.4903
lradius 38.4797
lwrist -2.77596
lhand -15.0794 24.3296
lfingers 7.12502
lthumb 11.0881 54.0167
rfemur 6.55703 1.32535 31.4272
rtibia 19.1817
rfoot -18.9158 -1.10082
rtoes 2.00754
lfemur -29.4927 -4.82754 -11.1971
ltibia 16.5862
lfoot -10.5593 10.9793
ltoes -13.2029
337
root -6.20374 17.608 7.73825 8.33767 -50.5021 -9.65058
lowerback 7.61793 3.34064 5.37908
upperback 0.920352 4.91996 1.65802
thorax -3.00181 2.37861 -1.77208
lowerneck -20.2343 -5.48184 -9.65169
upperneck 25.6032 -7.19933 8.35686
head 12.5346 -3.12377 3.58651
rclavicle -1.4971e-014 1.18774e-014
rhumerus -27.4112 3.03258 -80.2188
rradius 39.5123
rwrist 3.38997
rhand -16.095 11.453
rfingers 7.12502
rthumb 10.1085 -18.2842
lclavicle -1.4971e-014 1.18774e-014
lhumerus -36.5455 -2.77989 83.5307
lradius 38.7336
lwrist -2.6734
lhand -14.7887 24.91
lfingers 7.12502
lthumb 11.3685 54.5819
rfemur 7.23939 1.77437 31.563
rtibia 18.8322
rfoot -18.8431 -1.0511
rtoes 3.39621
lfemur -29.5905 -6.21984 -10.2575
ltibia 15.452
lfoot -10.5579 12.8242
ltoes -13.1001
338
root -6.31398 17.5959 7.8566 8.5643 -50.7404 -9.74868
lowerback 7.48786 3.41682 5.43349
upperback 0.902903 5.01634 1.61377
thorax -2.9323 2.42776 -1.84726
lowerneck -20.3886 -5.48058 -9.56749
upperneck 25.6061 -7.20314 8.33278
head 12.5626 -3.11578 3.56049
rclavicle 4.39749e-014 -2.32081e-014
rhumerus -27.2165 3.02997 -80.3755
rradius 39.3586
rwrist 3.71546
rhand -16.1414 11.359
rfingers 7.12502
rthumb 10.0637 -18.3803
lclavicle 4.39749e-014 -2.32081e-014
lhumerus -36.6519 -2.89592 83.5286
lradius 38.8765
lwrist -2.3848
lhand -14.5369 25.3905
lfingers 7.12502
lthumb 11.6114 55.0488
rfemur 7.81068 1.90157 31.5094
rtibia 18.5509
rfoot -18.7733 -0.972578
rtoes 3.27331
lfemur -29.7216 -7.98665 -9.29907
ltibia 14.4949
lfoot -10.671 14.962
ltoes -12.7724
339
root -6.42038 17.581 7.97311 8.80957 -50.9412 -9.91806
lowerback 7.43973 3.47411 5.51947
upperback 0.879166 5.09733 1.62284
thorax -2.91797 2.46702 -1.88947
lowerneck -20.4251 -5.43976 -9.47771
upperneck 25.5414 -7.13997 8.25221
head 12.5295 -3.08778 3.52331
rclavicle 1.94669e-013 -3.07619e-014
rhumerus -26.9932 2.96782 -80.4508
rradius 39.0513
rwrist 4.14064
rhand -16.0281 11.4771
rfingers 7.12502
rthumb 10.173 -18.2569
lclavicle 1.94669e-013 -3.07619e-014
lhumerus -36.771 -3.06653 83.6197
lradius 38.8978
lwrist -2.18496
lhand -14.0184 25.5915
lfingers 7.12502
lthumb 12.1114 55.221
rfemur 8.35748 1.83691 31.4705
rtibia 18.282
rfoot -18.5871 -0.826563
rtoes 1.6189
lfemur -29.8155 -9.35038 -8.4717
ltibia 13.766
lfoot -10.7442 16.5551
ltoes -13.2968
340
root -6.52786 17.5715 8.08605 9.02884 -51.1202 -10.1136
lowerback 7.44887 3.55726 5.6218
upperback 0.886325 5.21617 1.63597
thorax -2.89946 2.52528 -1.94231
lowerneck -20.4692 -5.46184 -9.56864
upperneck 25.4736 -7.16398 8.3651
head 12.5233 -3.09122 3.57643
rclavicle 3.04265e-014 -1.48592e-014
rhumerus -26.7691 2.91523 -80.4748
rradius 38.7276
rwrist 4.4304
rhand -16.1259 11.7332
rfingers 7.12502
rthumb 10.0787 -18.0055
lclavicle 3.04265e-014 -1.48592e-014
lhumerus -36.8554 -3.01943 83.6853
lradius 38.8543
lwrist -2.58396
lhand -13.9808 25.3747
lfingers 7.12502
lthumb 12.1476 55.0021
rfemur 8.99359 1.95242 31.4787
rtibia 17.9858
rfoot -18.3549 -0.591241
rtoes 1.55568
lfemur -29.8439 -9.48846 -8.17364
ltibia 13.3365
lfoot -10.6399 16.7955
ltoes -14.4199
341
root -6.63902 17.5641 8.20642 9.19538 -51.3474 -10.2872
lowerback 7.40693 3.62362 5.72628
upperback 0.921963 5.3078 1.66465
thorax -2.82574 2.57215 -1.97283
lowerneck -20.5176 -5.46124 -9.67156
upperneck 25.3993 -7.11421 8.36455
head 12.5025 -3.0773 3.60034
rclavicle 8.16446e-014 0
rhumerus -26.6164 3.13316 -80.5324
rradius 38.5257
rwrist 4.51476
rhand -16.2057 11.815
rfingers 7.12502
rthumb 10.0017 -17.9274
lclavicle 8.16446e-014 0
lhumerus -37.0286 -2.565 83.6403
lradius 38.7687
lwrist -3.59492
lhand -14.5108 24.5988
lfingers 7.12502
lthumb 11.6366 54.2557
rfemur 9.71488 2.01512 31.405
rtibia 17.6814
rfoot -18.1243 -0.224921
rtoes 1.74922
lfemur -29.8044 -9.21611 -8.12695
ltibia 13.2325
lfoot -10.5283 16.4217
ltoes -13.8322
342
root -6.75176 17.5539 8.32783 9.42722 -51.5302 -10.56
lowerback 7.37276 3.65947 5.90194
upperback 0.946059 5.36528 1.68881
thorax -2.7637 2.60077 -2.0451
lowerneck -20.6022 -5.43132 -9.62232
upperneck 25.4183 -7.05904 8.29461
head 12.5157 -3.05461 3.57417
rclavicle -6.1499e-014 4.17448e-015
rhumerus -26.5193 3.35713 -80.6683
rradius 38.3907
rwrist 4.50806
rhand -16.0668 11.9169
rfingers 7.12502
rthumb 10.1357 -17.8189
lclavicle -6.1499e-014 4.17448e-015
lhumerus -37.2265 -2.43459 83.6032
lradius 38.7207
lwrist -4.02234
lhand -14.7524 23.8633
lfingers 7.12502
lthumb 11.4036 53.5332
rfemur 10.4368 2.04324 31.4277
rtibia 17.3714
rfoot -17.8013 -0.077719
rtoes 0.33843
lfemur -29.7921 -8.3042 -8.34758
ltibia 13.4278
lfoot -10.3896 15.3276
ltoes -13.1691
